<svg width="100" height="92" viewBox="0 0 100 92" fill="none" xmlns="http://www.w3.org/2000/svg">
<g clip-path="url(#clip0_5_2)">
<g filter="url(#filter0_d_5_2)">
<path d="M10.9118 99.4624C11.0839 99.4624 11.2261 99.4025 11.3384 99.2827C11.4582 99.163 11.5181 99.0208 11.5181 98.8561H13.3257C13.3257 99.1929 13.2621 99.5073 13.1348 99.7992C13.0076 100.091 12.8354 100.346 12.6184 100.563C12.4013 100.78 12.1468 100.952 11.8549 101.079C11.563 101.206 11.2486 101.27 10.9118 101.27H9.6992C9.36237 101.27 9.048 101.206 8.75608 101.079C8.46416 100.952 8.20967 100.78 7.9926 100.563C7.77554 100.346 7.60338 100.091 7.47613 99.7992C7.34889 99.5073 7.28526 99.1929 7.28526 98.8561V95.8246C7.28526 95.4878 7.34889 95.1734 7.47613 94.8815C7.60338 94.5896 7.77554 94.3351 7.9926 94.1181C8.20967 93.901 8.46416 93.7288 8.75608 93.6016C9.048 93.4743 9.36237 93.4107 9.6992 93.4107H10.9118C11.2486 93.4107 11.563 93.4743 11.8549 93.6016C12.1468 93.7288 12.4013 93.901 12.6184 94.1181C12.8354 94.3351 13.0076 94.5896 13.1348 94.8815C13.2621 95.1734 13.3257 95.4878 13.3257 95.8246H11.5181C11.5181 95.66 11.4582 95.5215 11.3384 95.4092C11.2261 95.2895 11.0839 95.2296 10.9118 95.2296H9.6992C9.52704 95.2296 9.38108 95.2895 9.26132 95.4092C9.14904 95.5215 9.09291 95.66 9.09291 95.8246V98.8561C9.09291 99.0208 9.14904 99.163 9.26132 99.2827C9.38108 99.4025 9.52704 99.4624 9.6992 99.4624H10.9118Z" fill="white"/>
<path d="M18.009 101.27L16.7964 96.7565L15.5839 101.27H13.7762L15.8758 93.4107H17.7171L19.8167 101.27H18.009Z" fill="white"/>
<path d="M26.3076 95.8246C26.3076 96.1091 26.2589 96.3823 26.1616 96.6443C26.0718 96.8987 25.9446 97.1308 25.7799 97.3404C25.9446 97.5499 26.0718 97.7857 26.1616 98.0477C26.2589 98.3022 26.3076 98.5717 26.3076 98.8561V101.27H24.5V98.8561C24.5 98.6839 24.4401 98.5417 24.3203 98.4294C24.208 98.3097 24.0658 98.2498 23.8937 98.2498H22.0748V101.27H20.2672V93.4107H23.8937C24.2305 93.4107 24.5449 93.4743 24.8368 93.6016C25.1287 93.7288 25.3832 93.901 25.6003 94.1181C25.8173 94.3351 25.9895 94.5896 26.1167 94.8815C26.244 95.1734 26.3076 95.4878 26.3076 95.8246ZM23.8937 96.4309C24.0658 96.4309 24.208 96.3748 24.3203 96.2625C24.4401 96.1428 24.5 95.9968 24.5 95.8246C24.5 95.66 24.4401 95.5215 24.3203 95.4092C24.208 95.2895 24.0658 95.2296 23.8937 95.2296H22.0748V96.4309H23.8937Z" fill="white"/>
<path d="M30.9909 99.4624V101.27H29.172C28.8352 101.27 28.5208 101.206 28.2289 101.079C27.937 100.952 27.6825 100.78 27.4654 100.563C27.2484 100.346 27.0762 100.091 26.949 99.7992C26.8217 99.5073 26.7581 99.1929 26.7581 98.8561V93.4107H28.577V98.8561C28.577 99.0208 28.6331 99.163 28.7454 99.2827C28.8651 99.4025 29.0074 99.4624 29.172 99.4624H30.9909Z" fill="white"/>
<path d="M35.0664 93.4107C35.4033 93.4107 35.7176 93.4743 36.0095 93.6016C36.3015 93.7288 36.556 93.901 36.773 94.1181C36.9901 94.3351 37.1622 94.5896 37.2895 94.8815C37.4167 95.1734 37.4804 95.4878 37.4804 95.8246V98.8561C37.4804 99.1929 37.4167 99.5073 37.2895 99.7992C37.1622 100.091 36.9901 100.346 36.773 100.563C36.556 100.78 36.3015 100.952 36.0095 101.079C35.7176 101.206 35.4033 101.27 35.0664 101.27H33.8539C33.517 101.27 33.2027 101.206 32.9107 101.079C32.6188 100.952 32.3643 100.78 32.1473 100.563C31.9302 100.346 31.758 100.091 31.6308 99.7992C31.5035 99.5073 31.4399 99.1929 31.4399 98.8561V95.8246C31.4399 95.4878 31.5035 95.1734 31.6308 94.8815C31.758 94.5896 31.9302 94.3351 32.1473 94.1181C32.3643 93.901 32.6188 93.7288 32.9107 93.6016C33.2027 93.4743 33.517 93.4107 33.8539 93.4107H35.0664ZM35.6727 95.8246C35.6727 95.66 35.6128 95.5215 35.4931 95.4092C35.3808 95.2895 35.2386 95.2296 35.0664 95.2296H33.8539C33.6817 95.2296 33.5357 95.2895 33.416 95.4092C33.3037 95.5215 33.2476 95.66 33.2476 95.8246V98.8561C33.2476 99.0208 33.3037 99.163 33.416 99.2827C33.5357 99.4025 33.6817 99.4624 33.8539 99.4624H35.0664C35.2386 99.4624 35.3808 99.4025 35.4931 99.2827C35.6128 99.163 35.6727 99.0208 35.6727 98.8561V95.8246Z" fill="white"/>
<path d="M41.5574 96.4309C41.8942 96.4309 42.2086 96.4946 42.5005 96.6218C42.7924 96.749 43.0469 96.9249 43.264 97.1495C43.481 97.3666 43.6532 97.6211 43.7804 97.913C43.9077 98.2049 43.9713 98.5193 43.9713 98.8561C43.9713 99.1929 43.9077 99.5073 43.7804 99.7992C43.6532 100.091 43.481 100.346 43.264 100.563C43.0469 100.78 42.7924 100.952 42.5005 101.079C42.2086 101.206 41.8942 101.27 41.5574 101.27H37.9309V99.4624H41.5574C41.7295 99.4549 41.8717 99.395 41.984 99.2827C42.1038 99.163 42.1637 99.0208 42.1637 98.8561C42.1637 98.6839 42.1038 98.5417 41.984 98.4294C41.8717 98.3097 41.7295 98.2498 41.5574 98.2498H40.3448C40.008 98.2498 39.6936 98.1862 39.4017 98.0589C39.1098 97.9317 38.8553 97.7595 38.6382 97.5425C38.4211 97.3179 38.249 97.0597 38.1217 96.7678C37.9945 96.4758 37.9309 96.1615 37.9309 95.8246C37.9309 95.4878 37.9945 95.1734 38.1217 94.8815C38.249 94.5896 38.4211 94.3351 38.6382 94.1181C38.8553 93.901 39.1098 93.7288 39.4017 93.6016C39.6936 93.4743 40.008 93.4107 40.3448 93.4107H42.7587V95.2296H40.3448C40.1726 95.2296 40.0267 95.2895 39.9069 95.4092C39.7946 95.5215 39.7385 95.66 39.7385 95.8246C39.7385 95.9968 39.7946 96.1428 39.9069 96.2625C40.0267 96.3748 40.1726 96.4309 40.3448 96.4309H41.5574Z" fill="white"/>
<path d="M50.307 99.4624C50.4792 99.4624 50.6214 99.4025 50.7336 99.2827C50.8534 99.163 50.9133 99.0208 50.9133 98.8561H52.7209C52.7209 99.1929 52.6573 99.5073 52.5301 99.7992C52.4028 100.091 52.2307 100.346 52.0136 100.563C51.7965 100.78 51.542 100.952 51.2501 101.079C50.9582 101.206 50.6438 101.27 50.307 101.27H49.0944C48.7576 101.27 48.4432 101.206 48.1513 101.079C47.8594 100.952 47.6049 100.78 47.3878 100.563C47.1708 100.346 46.9986 100.091 46.8714 99.7992C46.7441 99.5073 46.6805 99.1929 46.6805 98.8561V95.8246C46.6805 95.4878 46.7441 95.1734 46.8714 94.8815C46.9986 94.5896 47.1708 94.3351 47.3878 94.1181C47.6049 93.901 47.8594 93.7288 48.1513 93.6016C48.4432 93.4743 48.7576 93.4107 49.0944 93.4107H50.307C50.6438 93.4107 50.9582 93.4743 51.2501 93.6016C51.542 93.7288 51.7965 93.901 52.0136 94.1181C52.2307 94.3351 52.4028 94.5896 52.5301 94.8815C52.6573 95.1734 52.7209 95.4878 52.7209 95.8246H50.9133C50.9133 95.66 50.8534 95.5215 50.7336 95.4092C50.6214 95.2895 50.4792 95.2296 50.307 95.2296H49.0944C48.9223 95.2296 48.7763 95.2895 48.6565 95.4092C48.5443 95.5215 48.4881 95.66 48.4881 95.8246V98.8561C48.4881 99.0208 48.5443 99.163 48.6565 99.2827C48.7763 99.4025 48.9223 99.4624 49.0944 99.4624H50.307Z" fill="white"/>
<path d="M56.7979 93.4107C57.1348 93.4107 57.4491 93.4743 57.7411 93.6016C58.033 93.7288 58.2875 93.901 58.5045 94.1181C58.7216 94.3351 58.8938 94.5896 59.021 94.8815C59.1483 95.1734 59.2119 95.4878 59.2119 95.8246V98.8561C59.2119 99.1929 59.1483 99.5073 59.021 99.7992C58.8938 100.091 58.7216 100.346 58.5045 100.563C58.2875 100.78 58.033 100.952 57.7411 101.079C57.4491 101.206 57.1348 101.27 56.7979 101.27H55.5854C55.2485 101.27 54.9342 101.206 54.6422 101.079C54.3503 100.952 54.0958 100.78 53.8788 100.563C53.6617 100.346 53.4896 100.091 53.3623 99.7992C53.2351 99.5073 53.1714 99.1929 53.1714 98.8561V95.8246C53.1714 95.4878 53.2351 95.1734 53.3623 94.8815C53.4896 94.5896 53.6617 94.3351 53.8788 94.1181C54.0958 93.901 54.3503 93.7288 54.6422 93.6016C54.9342 93.4743 55.2485 93.4107 55.5854 93.4107H56.7979ZM57.4042 95.8246C57.4042 95.66 57.3444 95.5215 57.2246 95.4092C57.1123 95.2895 56.9701 95.2296 56.7979 95.2296H55.5854C55.4132 95.2296 55.2673 95.2895 55.1475 95.4092C55.0352 95.5215 54.9791 95.66 54.9791 95.8246V98.8561C54.9791 99.0208 55.0352 99.163 55.1475 99.2827C55.2673 99.4025 55.4132 99.4624 55.5854 99.4624H56.7979C56.9701 99.4624 57.1123 99.4025 57.2246 99.2827C57.3444 99.163 57.4042 99.0208 57.4042 98.8561V95.8246Z" fill="white"/>
<path d="M59.6624 95.8246C59.6624 95.4878 59.726 95.1734 59.8532 94.8815C59.9805 94.5896 60.1527 94.3351 60.3697 94.1181C60.5868 93.901 60.8413 93.7288 61.1332 93.6016C61.4251 93.4743 61.7395 93.4107 62.0763 93.4107H63.2889C63.6257 93.4107 63.9401 93.4743 64.232 93.6016C64.5239 93.7288 64.7784 93.901 64.9955 94.1181C65.2125 94.3351 65.3847 94.5896 65.512 94.8815C65.6392 95.1734 65.7028 95.4878 65.7028 95.8246V101.27H63.8952V95.8246C63.8952 95.66 63.8353 95.5178 63.7155 95.398C63.6033 95.2782 63.461 95.2184 63.2889 95.2184H62.0763C61.9042 95.2184 61.7582 95.2782 61.6384 95.398C61.5262 95.5178 61.47 95.66 61.47 95.8246V101.27H59.6624V95.8246Z" fill="white"/>
<path d="M72.1938 95.8246C72.1938 96.1091 72.1451 96.3823 72.0478 96.6443C71.958 96.8987 71.8307 97.1308 71.6661 97.3404C71.8307 97.5499 71.958 97.7857 72.0478 98.0477C72.1451 98.3022 72.1938 98.5717 72.1938 98.8561V101.27H70.3861V98.8561C70.3861 98.6839 70.3262 98.5417 70.2065 98.4294C70.0942 98.3097 69.952 98.2498 69.7798 98.2498H67.961V101.27H66.1533V93.4107H69.7798C70.1167 93.4107 70.431 93.4743 70.723 93.6016C71.0149 93.7288 71.2694 93.901 71.4864 94.1181C71.7035 94.3351 71.8757 94.5896 72.0029 94.8815C72.1301 95.1734 72.1938 95.4878 72.1938 95.8246ZM69.7798 96.4309C69.952 96.4309 70.0942 96.3748 70.2065 96.2625C70.3262 96.1428 70.3861 95.9968 70.3861 95.8246C70.3861 95.66 70.3262 95.5215 70.2065 95.4092C70.0942 95.2895 69.952 95.2296 69.7798 95.2296H67.961V96.4309H69.7798Z" fill="white"/>
<path d="M76.8771 101.27L75.6645 96.7565L74.4519 101.27H72.6443L74.7438 93.4107H76.5852L78.6847 101.27H76.8771Z" fill="white"/>
<path d="M85.1757 98.8561C85.1757 99.1929 85.112 99.5073 84.9848 99.7992C84.8575 100.091 84.6854 100.346 84.4683 100.563C84.2513 100.78 83.9968 100.952 83.7048 101.079C83.4129 101.206 83.0986 101.27 82.7617 101.27H79.1352V93.4107H82.7617C83.0986 93.4107 83.4129 93.4743 83.7048 93.6016C83.9968 93.7288 84.2513 93.901 84.4683 94.1181C84.6854 94.3351 84.8575 94.5896 84.9848 94.8815C85.112 95.1734 85.1757 95.4878 85.1757 95.8246V98.8561ZM83.368 95.8246C83.368 95.66 83.3081 95.5215 83.1884 95.4092C83.0761 95.2895 82.9339 95.2296 82.7617 95.2296H80.9429V99.4624H82.7617C82.9339 99.4624 83.0761 99.4025 83.1884 99.2827C83.3081 99.163 83.368 99.0208 83.368 98.8561V95.8246Z" fill="white"/>
<path d="M89.2527 93.4107C89.5895 93.4107 89.9039 93.4743 90.1958 93.6016C90.4877 93.7288 90.7422 93.901 90.9593 94.1181C91.1763 94.3351 91.3485 94.5896 91.4757 94.8815C91.603 95.1734 91.6666 95.4878 91.6666 95.8246V98.8561C91.6666 99.1929 91.603 99.5073 91.4757 99.7992C91.3485 100.091 91.1763 100.346 90.9593 100.563C90.7422 100.78 90.4877 100.952 90.1958 101.079C89.9039 101.206 89.5895 101.27 89.2527 101.27H88.0401C87.7033 101.27 87.3889 101.206 87.097 101.079C86.8051 100.952 86.5506 100.78 86.3335 100.563C86.1164 100.346 85.9443 100.091 85.817 99.7992C85.6898 99.5073 85.6262 99.1929 85.6262 98.8561V95.8246C85.6262 95.4878 85.6898 95.1734 85.817 94.8815C85.9443 94.5896 86.1164 94.3351 86.3335 94.1181C86.5506 93.901 86.8051 93.7288 87.097 93.6016C87.3889 93.4743 87.7033 93.4107 88.0401 93.4107H89.2527ZM89.859 95.8246C89.859 95.66 89.7991 95.5215 89.6793 95.4092C89.5671 95.2895 89.4248 95.2296 89.2527 95.2296H88.0401C87.8679 95.2296 87.722 95.2895 87.6022 95.4092C87.4899 95.5215 87.4338 95.66 87.4338 95.8246V98.8561C87.4338 99.0208 87.4899 99.163 87.6022 99.2827C87.722 99.4025 87.8679 99.4624 88.0401 99.4624H89.2527C89.4248 99.4624 89.5671 99.4025 89.6793 99.2827C89.7991 99.163 89.859 99.0208 89.859 98.8561V95.8246Z" fill="white"/>
<path d="M12.3109 113.946C11.7748 114.123 11.2339 114.211 10.688 114.211C9.54063 114.211 8.6744 113.905 8.08928 113.294C7.50744 112.679 7.21652 111.921 7.21652 111.019C7.21652 110.107 7.53359 109.311 8.16773 108.631C8.80188 107.948 9.68118 107.606 10.8056 107.606C11.211 107.606 11.5951 107.654 11.9579 107.748L11.8353 108.562C11.296 108.432 10.8612 108.366 10.5311 108.366C9.74002 108.366 9.13366 108.606 8.71199 109.087C8.29358 109.564 8.08438 110.158 8.08438 110.867C8.08438 111.579 8.32464 112.204 8.80515 112.74C9.28893 113.276 9.97047 113.544 10.8498 113.544C11.0099 113.544 11.2502 113.519 11.5705 113.47C11.515 113.13 11.4872 112.735 11.4872 112.284C11.4872 111.905 11.4643 111.534 11.4185 111.171H12.3109C12.2848 111.602 12.2717 112.058 12.2717 112.539C12.2717 112.745 12.2848 113.214 12.3109 113.946Z" fill="white"/>
<path d="M18.7243 114.078H17.778C17.4642 113.14 17.2354 112.519 17.0915 112.215C16.9085 111.833 16.7009 111.586 16.4688 111.475C16.2858 111.387 15.9573 111.342 15.4833 111.342C15.2054 111.342 14.9586 111.346 14.7429 111.352C14.7429 112.408 14.7625 113.317 14.8017 114.078H13.8897C13.9388 113.065 13.9633 111.947 13.9633 110.725C13.9633 109.574 13.9388 108.564 13.8897 107.694H14.5811C14.7282 107.694 14.9145 107.69 15.1401 107.68C15.3656 107.67 15.6238 107.665 15.9148 107.665C17.3465 107.665 18.0624 108.159 18.0624 109.146C18.0624 109.966 17.6603 110.543 16.8562 110.877V110.926C17.2157 111.034 17.5067 111.284 17.7289 111.676C17.9153 112.003 18.247 112.804 18.7243 114.078ZM17.2239 109.479C17.2239 108.701 16.6976 108.312 15.6451 108.312C15.2692 108.312 14.9537 108.334 14.6988 108.376C14.7217 108.945 14.7331 109.718 14.7331 110.695C14.9292 110.702 15.1172 110.705 15.297 110.705C16.5816 110.705 17.2239 110.296 17.2239 109.479Z" fill="white"/>
<path d="M25.1818 114.078H24.1472C24.1472 113.859 23.9413 113.171 23.5294 112.014H20.7003C20.2949 113.155 20.0923 113.843 20.0923 114.078H19.1018C19.1018 113.957 19.5235 112.913 20.3669 110.945C21.2102 108.974 21.6319 107.891 21.6319 107.694H22.7694C22.7694 107.887 23.1715 108.955 23.9756 110.896C24.7797 112.838 25.1818 113.899 25.1818 114.078ZM23.3039 111.372C22.5357 109.453 22.1516 108.433 22.1516 108.312H22.0977C22.0977 108.414 21.7005 109.433 20.9062 111.372H23.3039Z" fill="white"/>
<path d="M30.4625 109.278C30.4625 110.023 30.1798 110.581 29.6143 110.95C29.0488 111.32 28.2888 111.504 27.3343 111.504C27.2133 111.504 27.1087 111.501 27.0205 111.494C27.0205 112.207 27.0466 113.068 27.0989 114.078H26.1575C26.2065 113.15 26.2311 112.032 26.2311 110.725C26.2311 109.6 26.2065 108.59 26.1575 107.694H26.8587C26.9339 107.694 27.148 107.69 27.501 107.68C27.8573 107.67 28.1596 107.665 28.4081 107.665C29.0357 107.665 29.5342 107.809 29.9035 108.097C30.2762 108.381 30.4625 108.775 30.4625 109.278ZM29.6437 109.563C29.6437 108.723 29.07 108.302 27.9227 108.302C27.6415 108.302 27.3261 108.327 26.9763 108.376C26.9992 108.909 27.0107 109.739 27.0107 110.867C27.1251 110.873 27.2656 110.877 27.4323 110.877C28.9066 110.877 29.6437 110.439 29.6437 109.563Z" fill="white"/>
<path d="M36.4101 114.078H35.4785C35.5112 112.947 35.5275 111.934 35.5275 111.038H32.5905C32.5905 111.764 32.6068 112.777 32.6395 114.078H31.7079C31.7537 112.885 31.7766 111.767 31.7766 110.725C31.7766 109.633 31.7537 108.623 31.7079 107.694H32.6395C32.6003 108.629 32.5807 109.538 32.5807 110.421H35.5373C35.5373 109.711 35.5177 108.803 35.4785 107.694H36.4101C36.361 108.603 36.3365 109.613 36.3365 110.725C36.3365 111.944 36.361 113.062 36.4101 114.078Z" fill="white"/>
<path d="M39.1902 114.078H38.2586C38.3076 113.019 38.3321 111.901 38.3321 110.725C38.3321 109.567 38.3076 108.557 38.2586 107.694H39.1902C39.1444 108.587 39.1215 109.597 39.1215 110.725C39.1215 111.908 39.1444 113.026 39.1902 114.078Z" fill="white"/>
<path d="M45.3584 113.299L45.2946 114.029C44.8926 114.15 44.4546 114.211 43.9806 114.211C42.8561 114.211 42.0111 113.904 41.4456 113.289C40.8801 112.671 40.5974 111.918 40.5974 111.029C40.5974 110.097 40.9128 109.295 41.5437 108.621C42.1746 107.945 43.0228 107.606 44.0885 107.606C44.3827 107.606 44.6932 107.65 45.0201 107.739L44.8828 108.518C44.5069 108.401 44.1718 108.342 43.8776 108.342C43.0866 108.342 42.4868 108.587 42.0782 109.077C41.6696 109.567 41.4653 110.167 41.4653 110.877C41.4653 111.599 41.7006 112.218 42.1713 112.735C42.642 113.251 43.2925 113.51 44.1228 113.51C44.4399 113.51 44.8517 113.439 45.3584 113.299Z" fill="white"/>
<path d="M53.7771 110.656C53.7771 111.584 53.4797 112.398 52.8848 113.098C52.2931 113.797 51.4759 114.147 50.4332 114.147C50.0932 114.147 49.5261 114.124 48.7318 114.078C48.7808 113.065 48.8053 111.947 48.8053 110.725C48.8053 109.574 48.7808 108.564 48.7318 107.694H49.2711C49.4019 107.694 49.6013 107.69 49.8693 107.68C50.1374 107.67 50.3139 107.665 50.3989 107.665C51.5527 107.665 52.4043 107.949 52.9534 108.518C53.5026 109.084 53.7771 109.796 53.7771 110.656ZM52.924 110.877C52.924 110.151 52.6919 109.545 52.2277 109.058C51.7668 108.571 51.0526 108.327 50.0851 108.327C49.9478 108.327 49.7598 108.343 49.5212 108.376C49.5473 109.138 49.5604 109.921 49.5604 110.725C49.5604 111.607 49.5784 112.503 49.6143 113.412C49.8758 113.464 50.1275 113.49 50.3694 113.49C51.2324 113.49 51.8731 113.235 52.2915 112.725C52.7132 112.212 52.924 111.596 52.924 110.877Z" fill="white"/>
<path d="M59.1657 113.338L59.1363 114.078H55.1844C55.2301 113.065 55.253 111.947 55.253 110.725C55.253 109.574 55.2301 108.564 55.1844 107.694H58.8912L58.8519 108.425C57.953 108.386 57.0002 108.366 55.9934 108.366C56.013 108.873 56.0228 109.558 56.0228 110.421C56.8923 110.421 57.667 110.401 58.3469 110.362V111.092C57.6212 111.063 56.8465 111.048 56.0228 111.048C56.0228 111.888 56.0375 112.676 56.0669 113.412C57.1522 113.412 58.1851 113.387 59.1657 113.338Z" fill="white"/>
<path d="M64.1376 112.426C64.1376 113.636 63.2959 114.24 61.6124 114.24C60.9979 114.24 60.452 114.17 59.9748 114.029L60.1464 113.26C60.6955 113.449 61.2169 113.544 61.7105 113.544C62.8219 113.544 63.3776 113.23 63.3776 112.603C63.3776 112.285 63.2338 112.014 62.9461 111.789C62.7532 111.638 62.3741 111.437 61.8086 111.186C61.2136 110.921 60.7969 110.677 60.5582 110.455C60.2281 110.148 60.063 109.762 60.063 109.298C60.063 108.814 60.2314 108.42 60.5681 108.116C60.944 107.776 61.4751 107.606 62.1616 107.606C62.9396 107.606 63.4724 107.657 63.76 107.758L63.6424 108.538C63.1455 108.381 62.6176 108.302 62.0586 108.302C61.2185 108.302 60.7985 108.584 60.7985 109.146C60.7985 109.417 60.9195 109.644 61.1613 109.827C61.3182 109.942 61.6647 110.115 62.2008 110.347C62.8121 110.612 63.2534 110.864 63.5247 111.102C63.9333 111.462 64.1376 111.903 64.1376 112.426Z" fill="white"/>
<path d="M66.4813 114.078H65.5497C65.5987 113.019 65.6232 111.901 65.6232 110.725C65.6232 109.567 65.5987 108.557 65.5497 107.694H66.4813C66.4355 108.587 66.4127 109.597 66.4127 110.725C66.4127 111.908 66.4355 113.026 66.4813 114.078Z" fill="white"/>
<path d="M72.9829 113.946C72.4468 114.123 71.9059 114.211 71.36 114.211C70.2126 114.211 69.3464 113.905 68.7613 113.294C68.1794 112.679 67.8885 111.921 67.8885 111.019C67.8885 110.107 68.2056 109.311 68.8397 108.631C69.4739 107.948 70.3532 107.606 71.4776 107.606C71.883 107.606 72.2671 107.654 72.6299 107.748L72.5073 108.562C71.968 108.432 71.5332 108.366 71.2031 108.366C70.412 108.366 69.8057 108.606 69.384 109.087C68.9656 109.564 68.7564 110.158 68.7564 110.867C68.7564 111.579 68.9966 112.204 69.4771 112.74C69.9609 113.276 70.6425 113.544 71.5218 113.544C71.6819 113.544 71.9222 113.519 72.2425 113.47C72.187 113.13 72.1592 112.735 72.1592 112.284C72.1592 111.905 72.1363 111.534 72.0905 111.171H72.9829C72.9568 111.602 72.9437 112.058 72.9437 112.539C72.9437 112.745 72.9568 113.214 72.9829 113.946Z" fill="white"/>
<path d="M79.4845 114.078H78.7981C78.7981 114.023 78.262 113.24 77.1899 111.73C76.0687 110.144 75.4296 109.144 75.2727 108.729H75.2237C75.2825 109.517 75.3119 110.192 75.3119 110.754C75.3119 111.852 75.3364 112.961 75.3855 114.078H74.5617C74.6173 113.016 74.6451 111.898 74.6451 110.725C74.6451 109.571 74.6173 108.561 74.5617 107.694H75.5032C75.5032 107.786 75.9967 108.531 76.9839 109.93C78.0169 111.401 78.6052 112.359 78.7491 112.804H78.7981C78.7425 112.006 78.7147 111.329 78.7147 110.774C78.7147 109.564 78.6919 108.538 78.6461 107.694H79.4845C79.429 108.561 79.4012 109.571 79.4012 110.725C79.4012 111.898 79.429 113.016 79.4845 114.078Z" fill="white"/>
<path d="M85.3095 113.338L85.2801 114.078H81.3281C81.3739 113.065 81.3968 111.947 81.3968 110.725C81.3968 109.574 81.3739 108.564 81.3281 107.694H85.0349L84.9957 108.425C84.0968 108.386 83.1439 108.366 82.1372 108.366C82.1568 108.873 82.1666 109.558 82.1666 110.421C83.0361 110.421 83.8108 110.401 84.4907 110.362V111.092C83.765 111.063 82.9903 111.048 82.1666 111.048C82.1666 111.888 82.1813 112.676 82.2107 113.412C83.2959 113.412 84.3289 113.387 85.3095 113.338Z" fill="white"/>
<path d="M91.3895 114.078H90.4432C90.1294 113.14 89.9005 112.519 89.7567 112.215C89.5737 111.833 89.3661 111.586 89.134 111.475C88.951 111.387 88.6224 111.342 88.1485 111.342C87.8706 111.342 87.6238 111.346 87.4081 111.352C87.4081 112.408 87.4277 113.317 87.4669 114.078H86.5549C86.604 113.065 86.6285 111.947 86.6285 110.725C86.6285 109.574 86.604 108.564 86.5549 107.694H87.2463C87.3934 107.694 87.5797 107.69 87.8052 107.68C88.0308 107.67 88.289 107.665 88.5799 107.665C90.0117 107.665 90.7275 108.159 90.7275 109.146C90.7275 109.966 90.3255 110.543 89.5214 110.877V110.926C89.8809 111.034 90.1718 111.284 90.3941 111.676C90.5804 112.003 90.9122 112.804 91.3895 114.078ZM89.8891 109.479C89.8891 108.701 89.3628 108.312 88.3103 108.312C87.9344 108.312 87.6189 108.334 87.364 108.376C87.3868 108.945 87.3983 109.718 87.3983 110.695C87.5944 110.702 87.7824 110.705 87.9621 110.705C89.2468 110.705 89.8891 110.296 89.8891 109.479Z" fill="white"/>
<path fill-rule="evenodd" clip-rule="evenodd" d="M43.8995 19.1353C48.5432 17.3412 53.5793 16.8093 58.4954 17.5936L47.6253 6.72352C43.4157 7.41931 39.3502 8.80657 35.5933 10.8291C29.1696 14.2868 16.7354 20.1743 14.5514 26.2238C14.1114 27.4903 13.7514 28.7832 13.4733 30.0948L13.3783 30.5025C13.1328 31.4248 12.7979 32.3209 12.3785 33.1782C12.1327 33.7367 11.8869 34.2953 11.6747 34.8539C11.3999 35.4785 11.2903 36.1633 11.3563 36.8425C11.5989 37.899 12.2111 38.834 13.0823 39.479C13.6409 40.0376 13.3895 40.194 13.3951 40.5347C13.3495 40.711 13.28 40.8801 13.1884 41.0375C11.7584 44.0091 10.6804 47.0199 8.65829 49.6341C7.80924 50.6731 6.9155 51.8684 7.09983 53.1141C7.22359 53.5815 7.4389 54.0196 7.73327 54.4032C8.02764 54.7867 8.39522 55.108 8.81469 55.3484C9.20617 55.6181 9.61904 55.8554 10.0492 56.0578C10.5575 56.3204 11.4121 56.7561 11.468 57.0689C11.5435 57.4658 11.4988 57.8762 11.3395 58.2475C11.1608 58.6218 10.982 58.9402 10.8256 59.2194C10.3899 59.9847 9.66374 61.2695 10.753 62.1911C11.0099 62.4201 11.4512 62.7497 11.8702 63.0681C11.5756 63.5891 11.4433 64.1863 11.4903 64.783C11.5213 65.0099 11.5969 65.2285 11.713 65.426C11.829 65.6235 11.983 65.7961 12.1662 65.9336C12.4331 66.1168 12.709 66.2865 12.9929 66.442C13.6911 66.8386 13.9593 67.0005 14.0598 67.3916C14.1208 67.8719 14.077 68.3598 13.9313 68.8215C13.8643 69.1343 13.7973 69.4471 13.7526 69.7544C13.634 70.8303 13.7699 71.919 14.1492 72.9327C14.443 74.0161 15.1421 74.9451 16.1018 75.5274C17.0615 76.1097 18.2083 76.3006 19.3049 76.0608C22.0308 75.4054 24.7251 74.6308 27.3877 73.7371C31.5286 77.612 36.4644 80.5377 41.8513 82.3105C47.2382 84.0834 52.9468 84.6608 58.5797 84.0026C64.2125 83.3444 69.6341 81.4663 74.4672 78.4991C79.3002 75.5319 83.4284 71.547 86.5643 66.8218C87.2346 65.8163 87.8602 64.7718 88.4356 63.6993C89.8527 61.0737 90.9588 58.2918 91.7312 55.4099H80.1238C78.4288 59.7402 75.6814 63.5799 72.13 66.5819C68.5785 69.5839 64.3349 71.6536 59.7828 72.6039C55.2307 73.5542 50.5135 73.3552 46.0577 72.0248C41.6018 70.6944 37.5476 68.2746 34.2617 64.9841C30.9758 61.6936 28.5616 57.6361 27.2374 53.1784C25.9132 48.7207 25.7207 44.0032 26.6773 39.4524C27.6339 34.9016 29.7095 30.6609 32.7164 27.1137C35.7233 23.5664 39.5668 20.8243 43.8995 19.1353Z" fill="#833594"/>
<path fill-rule="evenodd" clip-rule="evenodd" d="M53.306 30.3294C53.3451 30.2568 57.2943 22.8611 58.8584 20.0179L64.6286 30.4746C65.1367 31.3817 65.3965 32.4068 65.3817 33.4464C65.367 34.486 65.0783 35.5033 64.5448 36.3957C63.9858 37.3413 63.1876 38.1231 62.2306 38.6624C61.2736 39.2017 60.1914 39.4795 59.093 39.4679H58.931C57.813 39.4776 56.7121 39.1926 55.7393 38.6415C54.7665 38.0904 53.9561 37.2926 53.3898 36.3286C52.8485 35.4206 52.5558 34.3861 52.5411 33.3291C52.5264 32.2721 52.7902 31.2298 53.306 30.3071V30.3294Z" fill="#5BC4C0"/>
<path fill-rule="evenodd" clip-rule="evenodd" d="M65.1983 59.1413C62.1869 61.6328 58.4418 63.0686 54.5366 63.2288C50.6314 63.389 46.7813 62.2649 43.5759 60.0284C40.3705 57.792 37.9865 54.5666 36.7889 50.8461C35.5913 47.1256 35.6461 43.1151 36.945 39.4288H29.594C28.2028 45.1297 28.8663 51.1386 31.4678 56.3986C34.0693 61.6586 38.4422 65.8329 43.8174 68.1873C49.1926 70.5416 55.2258 70.9253 60.856 69.2707C66.4861 67.6162 71.3525 64.0294 74.5993 59.1413C75.0294 58.4933 75.426 57.8286 75.7947 57.1471C76.1019 56.5885 76.3924 55.9853 76.6549 55.382H68.6225C67.665 56.791 66.5121 58.0568 65.1983 59.1413Z" fill="#CB95C3"/>
</g>
</g>
<defs>
<filter id="filter0_d_5_2" x="6.55044" y="6.72352" width="85.7058" height="108.567" filterUnits="userSpaceOnUse" color-interpolation-filters="sRGB">
<feFlood flood-opacity="0" result="BackgroundImageFix"/>
<feColorMatrix in="SourceAlpha" type="matrix" values="0 0 0 0 0 0 0 0 0 0 0 0 0 0 0 0 0 0 127 0" result="hardAlpha"/>
<feOffset dy="0.524997"/>
<feGaussianBlur stdDeviation="0.262499"/>
<feComposite in2="hardAlpha" operator="out"/>
<feColorMatrix type="matrix" values="0 0 0 0 0 0 0 0 0 0 0 0 0 0 0 0 0 0 0.25 0"/>
<feBlend mode="normal" in2="BackgroundImageFix" result="effect1_dropShadow_5_2"/>
<feBlend mode="normal" in="SourceGraphic" in2="effect1_dropShadow_5_2" result="shape"/>
</filter>
<clipPath id="clip0_5_2">
<rect width="100" height="91.9897" fill="white" transform="translate(0 0.00517273)"/>
</clipPath>
</defs>
</svg>
